<?xml version="1.0" encoding="utf-8"?>
<!-- Generator: Adobe Illustrator 16.0.0, SVG Export Plug-In . SVG Version: 6.00 Build 0)  -->
<!DOCTYPE svg PUBLIC "-//W3C//DTD SVG 1.1//EN" "http://www.w3.org/Graphics/SVG/1.1/DTD/svg11.dtd">
<svg version="1.1" id="Layer_1" xmlns="http://www.w3.org/2000/svg" xmlns:xlink="http://www.w3.org/1999/xlink" x="0px" y="0px"
	 width="340.023px" height="305.859px" viewBox="0 0 340.023 305.859" enable-background="new 0 0 340.023 305.859"
	 xml:space="preserve">
<g enable-background="new    ">
	<path fill="#231F20" d="M49.808,250.936h4.927c2.928,0,4.749,1.66,4.749,4.178v0.036c0,2.803-2.25,4.267-4.999,4.267h-2.481v4.017
		h-2.196V250.936z M54.557,257.435c1.661,0,2.696-0.929,2.696-2.232v-0.035c0-1.464-1.053-2.231-2.696-2.231h-2.553v4.499H54.557z"
		/>
	<path fill="#231F20" d="M69.721,250.936h2.196v5.195h5.963v-5.195h2.196v12.497H77.88v-5.267h-5.963v5.267h-2.196V250.936z"/>
	<path fill="#231F20" d="M90.724,257.22v-0.035c0-3.518,2.714-6.463,6.552-6.463s6.516,2.91,6.516,6.427v0.036
		c0,3.517-2.714,6.462-6.552,6.462C93.403,263.646,90.724,260.737,90.724,257.22z M101.49,257.22v-0.035
		c0-2.429-1.767-4.445-4.249-4.445c-2.481,0-4.213,1.981-4.213,4.409v0.036c0,2.428,1.767,4.427,4.249,4.427
		C99.758,261.611,101.49,259.647,101.49,257.22z"/>
	<path fill="#231F20" d="M116.833,252.971h-3.963v-2.035h10.14v2.035h-3.963v10.462h-2.214V252.971z"/>
	<path fill="#231F20" d="M132.087,257.22v-0.035c0-3.518,2.714-6.463,6.552-6.463s6.516,2.91,6.516,6.427v0.036
		c0,3.517-2.714,6.462-6.552,6.462C134.765,263.646,132.087,260.737,132.087,257.22z M142.852,257.22v-0.035
		c0-2.429-1.767-4.445-4.249-4.445c-2.481,0-4.213,1.981-4.213,4.409v0.036c0,2.428,1.767,4.427,4.249,4.427
		C141.12,261.611,142.852,259.647,142.852,257.22z"/>
	<path fill="#231F20" d="M155.25,257.22v-0.035c0-3.5,2.678-6.463,6.445-6.463c2.178,0,3.517,0.606,4.803,1.695l-1.393,1.661
		c-0.964-0.821-1.911-1.339-3.5-1.339c-2.303,0-4.052,2.017-4.052,4.409v0.036c0,2.57,1.696,4.463,4.249,4.463
		c1.178,0,2.25-0.375,3.017-0.946v-2.339h-3.196v-1.91h5.32v5.249c-1.232,1.053-3,1.945-5.213,1.945
		C157.821,263.646,155.25,260.862,155.25,257.22z"/>
	<path fill="#231F20" d="M177.789,250.936h5.57c1.571,0,2.803,0.464,3.606,1.25c0.661,0.679,1.035,1.606,1.035,2.695v0.036
		c0,2.053-1.231,3.285-2.964,3.784l3.375,4.731h-2.607l-3.07-4.356h-2.749v4.356h-2.196V250.936z M183.199,257.131
		c1.57,0,2.57-0.821,2.57-2.089v-0.036c0-1.339-0.964-2.07-2.588-2.07h-3.196v4.195H183.199z"/>
	<path fill="#231F20" d="M203.111,250.847h2.035l5.5,12.586h-2.322l-1.268-3.018h-5.908l-1.285,3.018h-2.25L203.111,250.847z
		 M206.254,258.47l-2.16-4.999l-2.143,4.999H206.254z"/>
	<path fill="#231F20" d="M220.777,250.936h4.927c2.928,0,4.749,1.66,4.749,4.178v0.036c0,2.803-2.25,4.267-4.999,4.267h-2.481v4.017
		h-2.195V250.936z M225.525,257.435c1.66,0,2.695-0.929,2.695-2.232v-0.035c0-1.464-1.053-2.231-2.695-2.231h-2.553v4.499H225.525z"
		/>
	<path fill="#231F20" d="M240.69,250.936h2.196v5.195h5.963v-5.195h2.195v12.497h-2.195v-5.267h-5.963v5.267h-2.196V250.936z"/>
	<path fill="#231F20" d="M265.924,258.505l-4.963-7.569h2.606l3.481,5.517l3.535-5.517h2.518l-4.964,7.517v4.98h-2.214V258.505z"/>
</g>
<g enable-background="new    ">
	<path fill="#231F20" d="M45.681,46.554h3.149l16.463,58.208l16.374-58.388h2.429l16.374,58.388l16.464-58.208h2.969L101.64,109.98
		h-2.519L82.837,52.222L66.463,109.98h-2.519L45.681,46.554z"/>
	<path fill="#231F20" d="M131.867,46.554h2.969v29.869h36.166V46.554h2.969v62.977h-2.969V79.122h-36.166v30.408h-2.969V46.554z"/>
	<path fill="#231F20" d="M190.793,46.554h2.969v62.977h-2.969V46.554z"/>
	<path fill="#231F20" d="M223.72,49.253h-18.623v-2.699h40.305v2.699h-18.713v60.277h-2.969V49.253z"/>
	<path fill="#231F20" d="M256.197,46.554h36.796v2.699h-33.827v27.17h30.678v2.699h-30.678v27.709h34.277v2.699h-37.246V46.554z"/>
</g>
<g enable-background="new    ">
	<path fill="#231F20" d="M44.579,162.846h2.533l17.514,47.549l17.514-47.549h2.46L65.64,213.869h-2.099L44.579,162.846z"/>
	<path fill="#231F20" d="M94.303,162.846h2.388v50.661h-2.388V162.846z"/>
	<path fill="#231F20" d="M106.897,206.921l1.665-1.737c4.198,4.343,9.191,6.804,15.343,6.804c7.455,0,12.593-4.56,12.593-10.711
		v-0.146c0-5.355-2.75-8.612-13.244-12.303c-10.639-3.764-14.474-7.455-14.474-14.113v-0.145c0-6.875,6.151-12.376,14.546-12.376
		c5.935,0,10.566,2.1,14.475,5.429l-1.52,1.882c-3.691-3.185-7.961-5.139-13.1-5.139c-7.165,0-11.941,4.632-11.941,10.06v0.145
		c0,5.573,2.967,8.612,13.172,12.159c11.073,3.98,14.475,7.961,14.475,14.257v0.145c0,7.455-6.152,13.027-15.126,13.027
		C117.029,214.158,111.529,211.553,106.897,206.921z"/>
	<path fill="#231F20" d="M149.962,162.846h2.388v50.661h-2.388V162.846z"/>
	<path fill="#231F20" d="M163.859,188.394v-0.435c0-14.764,8.467-25.909,20.988-25.909c12.593,0,21.061,11.146,21.061,25.909v0.435
		c0,14.764-8.468,25.909-21.061,25.909S163.859,203.157,163.859,188.394z M203.446,188.466v-0.434
		c0-13.462-7.743-23.738-18.6-23.738c-10.929,0-18.6,10.132-18.6,23.593v0.435c0,13.461,7.743,23.738,18.672,23.738
		S203.446,201.927,203.446,188.466z"/>
	<path fill="#231F20" d="M216.912,162.846h2.242l30.832,45.957v-45.957h2.315v50.661h-1.954l-31.12-46.535v46.535h-2.315V162.846z"
		/>
	<path fill="#231F20" d="M262.075,206.921l1.665-1.737c4.197,4.343,9.191,6.804,15.342,6.804c7.455,0,12.594-4.56,12.594-10.711
		v-0.146c0-5.355-2.75-8.612-13.244-12.303c-10.639-3.764-14.475-7.455-14.475-14.113v-0.145c0-6.875,6.151-12.376,14.547-12.376
		c5.934,0,10.566,2.1,14.475,5.429l-1.52,1.882c-3.691-3.185-7.961-5.139-13.1-5.139c-7.166,0-11.941,4.632-11.941,10.06v0.145
		c0,5.573,2.967,8.612,13.172,12.159c11.072,3.98,14.475,7.961,14.475,14.257v0.145c0,7.455-6.152,13.027-15.127,13.027
		C272.207,214.158,266.707,211.553,262.075,206.921z"/>
</g>
<line fill="none" stroke="#27AAE1" stroke-width="3" stroke-miterlimit="10" x1="40.741" y1="134.873" x2="299.282" y2="134.873"/>
</svg>
